<svg width="1098" height="324" viewBox="0 0 1098 324" version="1.1" xmlns="http://www.w3.org/2000/svg" xmlns:xlink="http://www.w3.org/1999/xlink" xml:space="preserve" xmlns:serif="http://www.serif.com/" style="fill-rule:evenodd;clip-rule:evenodd;stroke-linejoin:round;stroke-miterlimit:2;"><path d="M0,178.344c0,23.594 14.049,39.362 50.612,39.362c34.857,-0 44.831,-16.393 44.831,-31.55c-0,-17.812 -12.162,-25 -34.506,-29.375l-22.981,-4.531c-21.25,-4.219 -26.42,-10.169 -26.42,-22.044c0,-12.813 8.92,-22.813 36.107,-22.813c29.388,0 36.576,15 37.513,27.813l7.162,-0c-0.769,-23.75 -18.568,-34.05 -46.706,-34.05c-27.656,0 -42.175,12.175 -42.175,28.893c0,16.889 9.362,24.076 33.737,29.232l20.782,4.375c23.45,4.844 29.388,10.469 29.388,22.969c-0,13.125 -10,24.844 -37.357,24.844c-30,-0 -42.669,-12.344 -42.826,-33.125l-7.161,-0Zm109.219,36.862l89.036,-0l0,-6.237l-81.875,-0l0,-48.451l77.656,0l0,-6.237l-77.656,0l0,-44.388l80.938,0l-0,-6.237l-88.099,0l-0,111.55Zm102.031,-0l7.161,-0l0,-101.563l0.313,0l53.919,101.563l7.188,-0l53.919,-101.563l0.313,0l-0,101.563l7.161,-0l-0,-111.55l-10.755,0l-54.232,102.5l-54.232,-102.5l-10.755,0l0,111.55Zm144.531,-36.862c0,23.594 14.037,39.362 50.612,39.362c34.857,-0 44.831,-16.393 44.831,-31.55c-0,-17.812 -12.161,-25 -34.518,-29.375l-22.969,-4.531c-21.263,-4.219 -26.419,-10.169 -26.419,-22.044c-0,-12.813 8.906,-22.813 36.106,-22.813c29.389,0 36.576,15 37.514,27.813l7.161,-0c-0.781,-23.75 -18.581,-34.05 -46.706,-34.05c-27.669,0 -42.174,12.175 -42.174,28.893c-0,16.889 9.349,24.076 33.737,29.232l20.781,4.375c23.451,4.844 29.388,10.469 29.388,22.969c0,13.125 -10,24.844 -37.357,24.844c-30.013,-0 -42.669,-12.344 -42.825,-33.125l-7.162,-0Zm111.537,-18.906c-0,-26.732 18.437,-52.045 52.044,-52.045c33.594,0 52.044,25.313 52.044,52.045c0,26.718 -18.45,52.031 -52.044,52.031c-33.607,-0 -52.044,-25.313 -52.044,-52.031m-7.162,-0c0,21.875 13.88,58.268 59.206,58.268c45.326,-0 59.206,-36.393 59.206,-58.268c-0,-21.889 -13.88,-58.282 -59.206,-58.282c-45.326,0 -59.206,36.393 -59.206,58.282m120.625,-49.545l45,0l0,105.313l7.162,-0l-0,-105.313l45,0l-0,-6.237l-97.162,0l0,6.237Zm104.219,105.313l89.036,-0l0,-6.237l-81.875,-0l0,-48.451l77.67,0l-0,-6.237l-77.67,0l0,-44.388l80.951,0l-0,-6.237l-88.112,0l0,111.55Zm203.411,-42.331c-4.218,24.219 -22.968,38.594 -47.656,38.594c-34.219,-0 -52.187,-24.063 -52.187,-52.031c-0,-28.139 20.325,-52.045 52.187,-52.045c20.938,0 40.469,9.844 45.781,31.25l7.188,0c-5.612,-24.844 -26.094,-37.487 -52.969,-37.487c-40.937,0 -59.362,31.237 -59.362,58.282c0,36.875 25.456,58.268 59.362,58.268c33.438,-0 52.344,-23.581 54.844,-44.831l-7.188,0Z" style="fill:#231f20;fill-rule:nonzero;"/><path d="M587.19,286.35l-32.083,0l-0,10.196l18.424,-0c-2.187,10.768 -8.567,17.148 -22.526,17.148c-11.484,0 -22.604,-6.38 -22.604,-23.698c0,-14.31 6.471,-24.622 23.333,-24.622c8.855,-0 17.058,3.737 19.506,12.591l14.765,-0c-1.458,-12.774 -14.114,-22.787 -33.906,-22.787c-26.523,0 -37.904,16.029 -37.904,34.362c0,18.321 10.743,34.349 38.269,34.349c10.221,0 19.518,-3.919 24.804,-10.286l1.914,8.463l8.008,0l0,-35.716Zm13.307,35.716l13.672,0l0,-25.703l23.242,0c10.04,0 11.316,6.563 11.316,15.86c-0,4.739 0.625,8.02 1.64,9.843l14.74,0c-2.63,-3.554 -2.735,-10.846 -2.735,-13.945c0,-9.206 -1.718,-15.95 -9.453,-17.578l0,-0.182c6.094,-1.914 10.742,-7.201 10.742,-15.69c0,-10.118 -5.377,-17.67 -21.953,-17.67l-41.211,0l0,65.065Zm13.672,-35.898l0,-18.971l23.62,-0c7.188,-0 11.667,2.643 11.667,9.401c-0,7.291 -4.102,9.57 -11.667,9.57l-23.62,-0Zm95.248,37.721c27.539,0 38.281,-16.028 38.281,-34.349c-0,-18.333 -10.742,-34.362 -38.281,-34.362c-27.539,0 -38.269,16.029 -38.269,34.362c0,18.321 10.73,34.349 38.269,34.349m-0,-10.195c-15.313,0 -24.063,-9.844 -24.063,-24.154c0,-14.323 8.75,-24.166 24.063,-24.166c15.312,-0 24.062,9.843 24.062,24.166c0,14.31 -8.75,24.154 -24.062,24.154m47.396,-19.596c-0,10.755 0.377,29.791 31.809,29.791c31.537,0 31.901,-19.036 31.901,-29.791l0,-37.097l-13.658,0l-0,36.732c-0,9.024 -0.365,19.961 -18.243,19.961c-17.786,0 -18.138,-10.937 -18.138,-19.961l0,-36.732l-13.671,0l-0,37.097Zm90.143,-26.901l22.968,-0c5.3,-0 10.951,2.005 10.951,10.039c0,7.747 -4.206,9.843 -11.953,9.843l-21.966,0l-0,-19.882Zm-13.672,54.869l13.672,0l-0,-24.791l26.614,-0c14.675,-0 20.964,-10.104 20.964,-20.039c-0,-10.495 -5.195,-20.235 -21.159,-20.235l-40.091,0l-0,65.065Z" style="fill:#231f20;fill-rule:nonzero;"/><path d="M1097.13,88.464c0,-48.855 -39.609,-88.464 -88.463,-88.464c-48.854,0 -88.464,39.609 -88.464,88.464c0,48.854 39.61,88.463 88.464,88.463c48.854,0 88.463,-39.609 88.463,-88.463m-43.307,42.421c-13.424,19.154 -35.937,27.956 -56.823,24.258c15.326,-2.109 29.974,-10.573 39.779,-24.557c3.476,-4.974 6.08,-10.273 7.864,-15.716c-10.612,14.518 -27.773,21.38 -43.971,19.101c-8.776,-0.911 -17.37,-3.958 -25.013,-9.31c-24.896,-17.434 -30.339,-52.63 -12.135,-78.619c13.411,-19.154 35.924,-27.956 56.809,-24.258c-15.325,2.109 -29.974,10.573 -39.765,24.557c-3.477,4.974 -6.094,10.274 -7.878,15.716c10.612,-14.518 27.774,-21.38 43.985,-19.101c8.763,0.911 17.356,3.958 25,9.31c24.895,17.435 30.338,52.63 12.148,78.619" style="fill:#f7931d;fill-rule:nonzero;"/></svg>