<svg width="100%" height="100%" viewBox="0 0 1098 324" version="1.1" xmlns="http://www.w3.org/2000/svg" xmlns:xlink="http://www.w3.org/1999/xlink" xml:space="preserve" xmlns:serif="http://www.serif.com/" style="fill-rule:evenodd;clip-rule:evenodd;stroke-linejoin:round;stroke-miterlimit:2;"><path d="M0,178.35c0,23.594 14.049,39.362 50.612,39.362c34.857,0 44.831,-16.393 44.831,-31.549c-0,-17.813 -12.162,-25 -34.506,-29.375l-22.981,-4.531c-21.25,-4.219 -26.42,-10.17 -26.42,-22.045c0,-12.812 8.92,-22.812 36.107,-22.812c29.388,-0 36.576,15 37.513,27.812l7.162,0c-0.769,-23.75 -18.568,-34.049 -46.706,-34.049c-27.656,-0 -42.175,12.174 -42.175,28.893c0,16.888 9.362,24.076 33.737,29.232l20.782,4.375c23.45,4.844 29.388,10.469 29.388,22.969c-0,13.125 -10,24.843 -37.357,24.843c-30,0 -42.669,-12.343 -42.826,-33.125l-7.161,0Zm109.219,36.862l89.036,0l0,-6.237l-81.875,0l0,-48.45l77.656,-0l0,-6.237l-77.656,-0l0,-44.388l80.938,-0l-0,-6.237l-88.099,-0l-0,111.549Zm102.031,0l7.161,0l0,-101.562l0.313,-0l53.919,101.562l7.188,0l53.919,-101.562l0.313,-0l-0,101.562l7.161,0l-0,-111.549l-10.755,-0l-54.232,102.5l-54.232,-102.5l-10.755,-0l0,111.549Zm144.531,-36.862c0,23.594 14.037,39.362 50.612,39.362c34.857,0 44.831,-16.393 44.831,-31.549c-0,-17.813 -12.161,-25 -34.518,-29.375l-22.969,-4.531c-21.263,-4.219 -26.419,-10.17 -26.419,-22.045c-0,-12.812 8.906,-22.812 36.106,-22.812c29.389,-0 36.576,15 37.514,27.812l7.161,0c-0.781,-23.75 -18.581,-34.049 -46.706,-34.049c-27.669,-0 -42.174,12.174 -42.174,28.893c-0,16.888 9.349,24.076 33.737,29.232l20.781,4.375c23.451,4.844 29.388,10.469 29.388,22.969c0,13.125 -10,24.843 -37.357,24.843c-30.013,0 -42.669,-12.343 -42.825,-33.125l-7.162,0Zm111.537,-18.906c-0,-26.732 18.437,-52.044 52.044,-52.044c33.594,-0 52.044,25.312 52.044,52.044c0,26.719 -18.45,52.031 -52.044,52.031c-33.607,0 -52.044,-25.312 -52.044,-52.031m-7.162,0c0,21.875 13.88,58.268 59.206,58.268c45.326,0 59.206,-36.393 59.206,-58.268c-0,-21.888 -13.88,-58.281 -59.206,-58.281c-45.326,-0 -59.206,36.393 -59.206,58.281m120.625,-49.544l45,-0l0,105.312l7.162,0l-0,-105.312l45,-0l-0,-6.237l-97.162,-0l0,6.237Zm104.219,105.312l89.036,0l0,-6.237l-81.875,0l0,-48.45l77.67,-0l-0,-6.237l-77.67,-0l0,-44.388l80.951,-0l-0,-6.237l-88.112,-0l0,111.549Zm203.411,-42.33c-4.218,24.218 -22.968,38.593 -47.656,38.593c-34.219,0 -52.187,-24.062 -52.187,-52.031c-0,-28.138 20.325,-52.044 52.187,-52.044c20.938,-0 40.469,9.843 45.781,31.25l7.188,-0c-5.612,-24.844 -26.094,-37.487 -52.969,-37.487c-40.937,-0 -59.362,31.237 -59.362,58.281c0,36.875 25.456,58.268 59.362,58.268c33.438,0 52.344,-23.58 54.844,-44.83l-7.188,-0Z" style="fill:#231f20;fill-rule:nonzero;"></path><path d="M599.487,281.061c-1.445,-14.036 -13.125,-25.872 -35.534,-25.872c-25.612,-0 -36.354,16.028 -36.354,34.349c-0,18.32 11.185,34.362 34.714,34.362c26.783,-0 35.273,-13.75 37.174,-26.706l-14.766,0c-1.093,6.836 -5.82,16.51 -20.052,16.51c-13.476,0 -22.877,-9.401 -22.877,-22.981c-0,-16.953 9.401,-25.339 21.979,-25.339c11.484,0 19.596,5.833 20.95,15.677l14.766,0Zm5.755,41.016l63.06,-0l0,-10.742l-44.648,-0l44.388,-44.401l-0,-9.922l-59.688,-0l0,10.195l41.732,0l-44.844,44.935l0,9.935Zm71.094,-0l57.24,-0l-0,-10.195l-43.581,-0l-0,-18.06l41.107,-0l-0,-10.196l-41.107,0l-0,-16.419l42.838,0l0,-10.195l-56.497,-0l-0,65.065Zm135.794,-41.016c-1.445,-14.036 -13.125,-25.872 -35.534,-25.872c-25.612,-0 -36.354,16.028 -36.354,34.349c0,18.32 11.198,34.362 34.714,34.362c26.784,-0 35.273,-13.75 37.174,-26.706l-14.765,0c-1.094,6.836 -5.834,16.51 -20.052,16.51c-13.49,0 -22.878,-9.401 -22.878,-22.981c-0,-16.953 9.388,-25.339 21.979,-25.339c11.484,0 19.596,5.833 20.951,15.677l14.765,0Zm11.055,41.016l13.659,-0l-0,-29.531l40.377,-0l0,29.531l13.672,-0l0,-65.065l-13.672,-0l0,25.338l-40.377,0l-0,-25.338l-13.659,-0l-0,65.065Z" style="fill:#231f20;fill-rule:nonzero;"></path><path d="M1097.13,88.464c0,-48.855 -39.609,-88.464 -88.463,-88.464c-48.854,0 -88.464,39.609 -88.464,88.464c0,48.854 39.61,88.463 88.464,88.463c48.854,0 88.463,-39.609 88.463,-88.463m-43.307,42.421c-13.424,19.154 -35.937,27.956 -56.823,24.258c15.326,-2.109 29.974,-10.573 39.779,-24.557c3.476,-4.974 6.08,-10.273 7.864,-15.716c-10.612,14.518 -27.773,21.38 -43.971,19.101c-8.776,-0.911 -17.37,-3.958 -25.013,-9.31c-24.896,-17.434 -30.339,-52.63 -12.135,-78.619c13.411,-19.154 35.924,-27.956 56.809,-24.258c-15.325,2.109 -29.974,10.573 -39.765,24.557c-3.477,4.974 -6.094,10.274 -7.878,15.716c10.612,-14.518 27.774,-21.38 43.985,-19.101c8.763,0.911 17.356,3.958 25,9.31c24.895,17.435 30.338,52.63 12.148,78.619" style="fill:#f7931d;fill-rule:nonzero;"></path></svg>