<svg width="100%" height="100%" viewBox="0 0 1164 324" version="1.1" xmlns="http://www.w3.org/2000/svg" xmlns:xlink="http://www.w3.org/1999/xlink" xml:space="preserve" xmlns:serif="http://www.serif.com/" style="fill-rule:evenodd;clip-rule:evenodd;stroke-linejoin:round;stroke-miterlimit:2;"><path d="M0,179.609l0,2.657c0,27.656 17.487,35.442 35.768,35.442c21.563,0 35,-11.692 35,-36.067l0,-77.969l-7.174,-0l-0,78.594c-0,19.062 -8.75,29.218 -27.826,29.218c-26.406,0 -28.594,-19.218 -28.594,-29.218l0,-2.657l-7.174,0Zm96.693,-69.713l48.606,-0c11.862,-0 29.688,-0 29.688,21.732c-0,22.669 -22.813,22.669 -28.594,22.669l-49.7,-0l-0,-44.401Zm-0,50.638l48.437,-0c12.357,-0 33.62,-0 33.62,23.437c-0,25.013 -26.107,25.013 -31.732,25.013l-50.325,0l-0,-48.45Zm-7.162,54.674l59.05,0c30.781,0 37.317,-18.567 37.317,-30.612c0,-9.531 -3.88,-25.312 -25.585,-27.5l-0,-0.312c16.848,-3.581 21.835,-14.675 21.835,-25.625c0,-17.5 -11.054,-27.487 -32.474,-27.487l-60.143,-0l0,111.536Zm113.594,0l7.148,0l0,-101.549l0.326,-0l53.906,101.549l7.201,0l53.919,-101.549l0.299,-0l0,101.549l7.175,0l-0,-111.536l-10.755,-0l-54.232,102.5l-54.232,-102.5l-10.755,-0l-0,111.536Zm213.88,-36.849c0,23.594 14.05,39.349 50.638,39.349c34.844,0 44.818,-16.38 44.818,-31.536c-0,-17.826 -12.162,-25.013 -34.505,-29.388l-22.995,-4.531c-21.237,-4.219 -26.393,-10.157 -26.393,-22.032c-0,-12.812 8.906,-22.825 36.093,-22.825c29.375,-0 36.576,15.013 37.5,27.825l7.188,0c-0.781,-23.75 -18.594,-34.049 -46.732,-34.049c-27.656,-0 -42.161,12.174 -42.161,28.893c-0,16.875 9.362,24.063 33.737,29.219l20.794,4.375c23.424,4.844 29.362,10.469 29.362,22.982c-0,13.125 -9.987,24.843 -37.357,24.843c-29.987,0 -42.643,-12.343 -42.799,-33.125l-7.188,0Zm108.294,-4.375c0,28.75 16.537,43.724 49.362,43.724c32.813,0 49.375,-14.974 49.375,-43.724l0,-70.312l-7.174,-0l-0,70c-0,23.906 -11.25,37.812 -42.201,37.812c-30.937,0 -42.187,-13.906 -42.187,-37.812l-0,-70l-7.175,-0l0,70.312Zm116.563,41.224l7.174,0l0,-111.536l-7.174,-0l-0,111.536Zm20.924,-36.849c0,23.594 14.037,39.349 50.625,39.349c34.857,0 44.818,-16.38 44.818,-31.536c0,-17.826 -12.148,-25.013 -34.505,-29.388l-22.982,-4.531c-21.25,-4.219 -26.406,-10.157 -26.406,-22.032c-0,-12.812 8.906,-22.825 36.107,-22.825c29.375,-0 36.575,15.013 37.5,27.825l7.174,0c-0.781,-23.75 -18.581,-34.049 -46.719,-34.049c-27.669,-0 -42.161,12.174 -42.161,28.893c-0,16.875 9.349,24.063 33.737,29.219l20.781,4.375c23.438,4.844 29.375,10.469 29.375,22.982c0,13.125 -9.987,24.843 -37.344,24.843c-30,0 -42.669,-12.343 -42.825,-33.125l-7.175,0Zm104.219,0c0,23.594 14.037,39.349 50.625,39.349c34.857,0 44.818,-16.38 44.818,-31.536c-0,-17.826 -12.149,-25.013 -34.505,-29.388l-22.982,-4.531c-21.263,-4.219 -26.406,-10.157 -26.406,-22.032c-0,-12.812 8.906,-22.825 36.093,-22.825c29.388,-0 36.589,15.013 37.513,27.825l7.175,0c-0.781,-23.75 -18.594,-34.049 -46.706,-34.049c-27.669,-0 -42.174,12.174 -42.174,28.893c-0,16.875 9.349,24.063 33.737,29.219l20.768,4.375c23.463,4.844 29.388,10.469 29.388,22.982c-0,13.125 -9.987,24.843 -37.344,24.843c-30.026,0 -42.669,-12.343 -42.825,-33.125l-7.175,0Zm109.232,36.849l89.036,0l0,-6.224l-81.875,0l0,-48.45l77.657,-0l-0,-6.237l-77.657,-0l0,-44.401l80.938,-0l-0,-6.224l-88.099,-0l-0,111.536Z" style="fill:#231f20;fill-rule:nonzero;"></path><path d="M254.733,281.061c-1.445,-14.036 -13.125,-25.872 -35.534,-25.872c-25.612,-0 -36.354,16.028 -36.354,34.349c0,18.32 11.185,34.362 34.714,34.362c26.783,-0 35.273,-13.75 37.174,-26.706l-14.766,0c-1.093,6.836 -5.833,16.51 -20.052,16.51c-13.489,0 -22.877,-9.401 -22.877,-22.981c-0,-16.953 9.388,-25.339 21.966,-25.339c11.497,0 19.609,5.833 20.963,15.677l14.766,0Zm45.677,42.839c27.526,-0 38.268,-16.042 38.268,-34.362c0,-18.321 -10.742,-34.349 -38.268,-34.349c-27.526,-0 -38.281,16.028 -38.281,34.349c-0,18.32 10.755,34.362 38.281,34.362m0,-10.196c-15.325,0 -24.075,-9.856 -24.075,-24.166c-0,-14.31 8.75,-24.154 24.075,-24.154c15.326,0 24.063,9.844 24.063,24.154c-0,14.31 -8.737,24.166 -24.063,24.166m47.943,8.373l13.659,-0l-0,-25.703l23.255,-0c10.026,-0 11.315,6.562 11.315,15.859c0,4.74 0.625,8.021 1.641,9.844l14.739,-0c-2.643,-3.555 -2.734,-10.847 -2.734,-13.945c-0,-9.206 -1.719,-15.951 -9.453,-17.592l-0,-0.182c6.093,-1.914 10.729,-7.2 10.729,-15.677c-0,-10.117 -5.378,-17.669 -21.953,-17.669l-41.198,-0l-0,65.065Zm13.659,-35.899l-0,-18.971l23.62,0c7.2,0 11.666,2.643 11.666,9.388c0,7.292 -4.088,9.583 -11.666,9.583l-23.62,0Zm74.284,-18.971l22.968,0c5.3,0 10.964,2.005 10.964,10.026c-0,7.747 -4.193,9.857 -11.966,9.857l-21.966,-0l-0,-19.883Zm-13.646,54.87l13.646,-0l-0,-24.792l26.614,0c14.675,0 20.977,-10.104 20.977,-20.052c-0,-10.482 -5.209,-20.221 -21.146,-20.221l-40.091,-0l-0,65.065Zm105.521,1.823c27.526,-0 38.281,-16.042 38.281,-34.362c-0,-18.321 -10.755,-34.349 -38.281,-34.349c-27.513,-0 -38.256,16.028 -38.256,34.349c0,18.32 10.743,34.362 38.256,34.362m-0,-10.196c-15.313,0 -24.063,-9.856 -24.063,-24.166c0,-14.31 8.75,-24.154 24.063,-24.154c15.338,0 24.088,9.844 24.088,24.154c0,14.31 -8.75,24.166 -24.088,24.166m47.968,8.373l13.646,-0l0,-25.703l23.255,-0c10.026,-0 11.315,6.562 11.315,15.859c0,4.74 0.638,8.021 1.641,9.844l14.753,-0c-2.657,-3.555 -2.735,-10.847 -2.735,-13.945c0,-9.206 -1.731,-15.951 -9.492,-17.592l0,-0.182c6.12,-1.914 10.755,-7.2 10.755,-15.677c0,-10.117 -5.377,-17.669 -21.953,-17.669l-41.185,-0l0,65.065Zm13.646,-35.899l0,-18.971l23.607,0c7.226,0 11.68,2.643 11.68,9.388c-0,7.292 -4.102,9.583 -11.68,9.583l-23.607,0Zm78.75,9.571l11.302,-27.448l11.12,27.448l-22.422,-0Zm-25.599,26.328l14.753,-0l6.758,-16.133l30.612,0l6.849,16.133l15.221,-0l-28.997,-65.065l-16.224,-0l-28.972,65.065Zm92.787,-0l13.659,-0l-0,-54.87l24.427,0l-0,-10.195l-62.513,-0l-0,10.195l24.427,0l-0,54.87Zm44.752,-0l13.672,-0l0,-65.065l-13.672,-0l0,65.065Zm61.602,1.823c27.552,-0 38.281,-16.042 38.281,-34.362c0,-18.321 -10.729,-34.349 -38.281,-34.349c-27.526,-0 -38.268,16.028 -38.268,34.349c-0,18.32 10.742,34.362 38.268,34.362m-0,-10.196c-15.3,0 -24.05,-9.856 -24.05,-24.166c0,-14.31 8.75,-24.154 24.05,-24.154c15.325,0 24.075,9.844 24.075,24.154c0,14.31 -8.75,24.166 -24.075,24.166m47.956,8.373l13.112,-0l-0,-48.854l0.195,-0l39.023,48.854l15.378,-0l-0,-65.065l-13.112,-0l-0,48.854l-0.169,-0l-38.763,-48.854l-15.664,-0l-0,65.065Z" style="fill:#231f20;fill-rule:nonzero;"></path><path d="M1163.98,88.464c0,-48.855 -39.609,-88.464 -88.463,-88.464c-48.855,-0 -88.464,39.609 -88.464,88.464c0,48.854 39.609,88.463 88.464,88.463c48.854,0 88.463,-39.609 88.463,-88.463m-43.294,42.421c-13.425,19.154 -35.951,27.956 -56.823,24.258c15.312,-2.109 29.961,-10.573 39.766,-24.557c3.489,-4.974 6.08,-10.274 7.877,-15.716c-10.625,14.518 -27.773,21.38 -43.971,19.101c-8.776,-0.911 -17.37,-3.958 -25.013,-9.31c-24.896,-17.434 -30.339,-52.63 -12.149,-78.619c13.425,-19.154 35.925,-27.956 56.823,-24.258c-15.325,2.109 -29.974,10.573 -39.765,24.557c-3.49,4.974 -6.107,10.274 -7.891,15.716c10.625,-14.518 27.774,-21.38 43.984,-19.101c8.763,0.911 17.357,3.958 25,9.31c24.896,17.435 30.339,52.63 12.162,78.619" style="fill:#f7931d;fill-rule:nonzero;"></path></svg>