<svg width="100%" height="100%" viewBox="0 0 1098 324" version="1.1" xmlns="http://www.w3.org/2000/svg" xmlns:xlink="http://www.w3.org/1999/xlink" xml:space="preserve" xmlns:serif="http://www.serif.com/" style="fill-rule:evenodd;clip-rule:evenodd;stroke-linejoin:round;stroke-miterlimit:2;"><path d="M0,178.344c0,23.594 14.049,39.362 50.612,39.362c34.857,-0 44.831,-16.393 44.831,-31.55c-0,-17.812 -12.162,-25 -34.506,-29.375l-22.981,-4.531c-21.25,-4.219 -26.42,-10.169 -26.42,-22.044c0,-12.813 8.92,-22.813 36.107,-22.813c29.388,0 36.576,15 37.513,27.813l7.162,-0c-0.769,-23.75 -18.568,-34.05 -46.706,-34.05c-27.656,0 -42.175,12.175 -42.175,28.893c0,16.889 9.362,24.076 33.737,29.232l20.782,4.375c23.45,4.844 29.388,10.469 29.388,22.969c-0,13.125 -10,24.844 -37.357,24.844c-30,-0 -42.669,-12.344 -42.826,-33.125l-7.161,-0Zm109.219,36.862l89.036,-0l0,-6.237l-81.875,-0l0,-48.451l77.656,0l0,-6.237l-77.656,0l0,-44.388l80.938,0l-0,-6.237l-88.099,0l-0,111.55Zm102.031,-0l7.161,-0l0,-101.563l0.313,0l53.919,101.563l7.188,-0l53.919,-101.563l0.313,0l-0,101.563l7.161,-0l-0,-111.55l-10.755,0l-54.232,102.5l-54.232,-102.5l-10.755,0l0,111.55Zm144.531,-36.862c0,23.594 14.037,39.362 50.612,39.362c34.857,-0 44.831,-16.393 44.831,-31.55c-0,-17.812 -12.161,-25 -34.518,-29.375l-22.969,-4.531c-21.263,-4.219 -26.419,-10.169 -26.419,-22.044c-0,-12.813 8.906,-22.813 36.106,-22.813c29.389,0 36.576,15 37.514,27.813l7.161,-0c-0.781,-23.75 -18.581,-34.05 -46.706,-34.05c-27.669,0 -42.174,12.175 -42.174,28.893c-0,16.889 9.349,24.076 33.737,29.232l20.781,4.375c23.451,4.844 29.388,10.469 29.388,22.969c0,13.125 -10,24.844 -37.357,24.844c-30.013,-0 -42.669,-12.344 -42.825,-33.125l-7.162,-0Zm111.537,-18.906c-0,-26.732 18.437,-52.045 52.044,-52.045c33.594,0 52.044,25.313 52.044,52.045c0,26.718 -18.45,52.031 -52.044,52.031c-33.607,-0 -52.044,-25.313 -52.044,-52.031m-7.162,-0c0,21.875 13.88,58.268 59.206,58.268c45.326,-0 59.206,-36.393 59.206,-58.268c-0,-21.889 -13.88,-58.282 -59.206,-58.282c-45.326,0 -59.206,36.393 -59.206,58.282m120.625,-49.545l45,0l0,105.313l7.162,-0l-0,-105.313l45,0l-0,-6.237l-97.162,0l0,6.237Zm104.219,105.313l89.036,-0l0,-6.237l-81.875,-0l0,-48.451l77.67,0l-0,-6.237l-77.67,0l0,-44.388l80.951,0l-0,-6.237l-88.112,0l0,111.55Zm203.411,-42.331c-4.218,24.219 -22.968,38.594 -47.656,38.594c-34.219,-0 -52.187,-24.063 -52.187,-52.031c-0,-28.139 20.325,-52.045 52.187,-52.045c20.938,0 40.469,9.844 45.781,31.25l7.188,0c-5.612,-24.844 -26.094,-37.487 -52.969,-37.487c-40.937,0 -59.362,31.237 -59.362,58.282c0,36.875 25.456,58.268 59.362,58.268c33.438,-0 52.344,-23.581 54.844,-44.831l-7.188,0Z" style="fill:#231f20;fill-rule:nonzero;"></path><path d="M2.951,322.069l13.658,0l0,-28.255l38.282,-0l-0,-10.196l-38.282,0l0,-16.419l40.469,0l0,-10.195l-54.127,-0l-0,65.065Zm77.213,-26.328l11.302,-27.448l11.107,27.448l-22.409,-0Zm-25.612,26.328l14.766,0l6.744,-16.133l30.612,0l6.836,16.133l15.222,0l-28.985,-65.065l-16.211,-0l-28.984,65.065Zm76.563,-46.758c-0,26.68 47.942,12.643 47.942,28.776c0,7.136 -7.747,9.61 -16.054,9.61c-11.211,-0 -18.321,-4.115 -18.685,-12.722l-14.753,0c0.182,13.724 9.557,22.917 32.982,22.917c13.867,-0 31.263,-4.375 31.263,-21.172c-0,-27.773 -48.49,-13.138 -48.49,-28.411c0,-6.107 6.016,-8.933 15.131,-8.933c11.406,0 15.963,5.469 16.419,10.482l14.752,0c-1.731,-18.854 -21.77,-20.677 -31.81,-20.677c-15.859,-0 -28.697,5.638 -28.697,20.13m88.776,46.758l13.658,0l0,-54.87l24.428,0l-0,-10.195l-62.513,-0l-0,10.195l24.427,0l-0,54.87Zm73.372,-46.758c0,26.68 47.943,12.643 47.943,28.776c-0,7.136 -7.761,9.61 -16.055,9.61c-11.211,-0 -18.32,-4.115 -18.685,-12.722l-14.752,0c0.182,13.724 9.557,22.917 32.981,22.917c13.868,-0 31.263,-4.375 31.263,-21.172c0,-27.773 -48.489,-13.138 -48.489,-28.411c-0,-6.107 6.015,-8.933 15.13,-8.933c11.393,0 15.964,5.469 16.419,10.482l14.753,0c-1.732,-18.854 -21.784,-20.677 -31.81,-20.677c-15.859,-0 -28.698,5.638 -28.698,20.13m105.625,48.581c27.526,-0 38.281,-16.029 38.281,-34.362c0,-18.32 -10.755,-34.349 -38.281,-34.349c-27.526,-0 -38.268,16.029 -38.268,34.349c-0,18.333 10.742,34.362 38.268,34.362m0,-10.195c-15.312,-0 -24.062,-9.844 -24.062,-24.167c-0,-14.31 8.75,-24.154 24.062,-24.154c15.326,0 24.076,9.844 24.076,24.154c-0,14.323 -8.75,24.167 -24.076,24.167m47.956,8.372l53.216,0l-0,-10.742l-39.557,-0l-0,-54.323l-13.659,-0l-0,65.065Zm60.247,-27.969c0,10.755 0.365,29.792 31.797,29.792c31.536,-0 31.901,-19.037 31.901,-29.792l0,-37.096l-13.659,-0l0,36.732c0,9.023 -0.364,19.961 -18.242,19.961c-17.773,-0 -18.138,-10.938 -18.138,-19.961l0,-36.732l-13.659,-0l0,37.096Zm94.245,27.969l13.646,0l-0,-54.87l24.427,0l-0,-10.195l-62.513,-0l-0,10.195l24.44,0l-0,54.87Zm44.74,0l13.658,0l0,-65.065l-13.658,-0l-0,65.065Zm61.614,1.823c27.526,-0 38.268,-16.029 38.268,-34.362c0,-18.32 -10.742,-34.349 -38.268,-34.349c-27.526,-0 -38.281,16.029 -38.281,34.349c-0,18.333 10.755,34.362 38.281,34.362m0,-10.195c-15.312,-0 -24.075,-9.844 -24.075,-24.167c-0,-14.31 8.763,-24.154 24.075,-24.154c15.313,0 24.063,9.844 24.063,24.154c-0,14.323 -8.75,24.167 -24.063,24.167m47.943,8.372l13.112,0l-0,-48.854l0.182,-0l39.024,48.854l15.377,0l0,-65.065l-13.099,-0l0,48.854l-0.182,0l-38.75,-48.854l-15.664,-0l-0,65.065Zm77.565,-46.758c-0,26.68 47.943,12.643 47.943,28.776c-0,7.136 -7.748,9.61 -16.055,9.61c-11.198,-0 -18.32,-4.115 -18.685,-12.722l-14.753,0c0.183,13.724 9.558,22.917 32.995,22.917c13.854,-0 31.25,-4.375 31.25,-21.172c0,-27.773 -48.489,-13.138 -48.489,-28.411c-0,-6.107 6.028,-8.933 15.143,-8.933c11.393,0 15.95,5.469 16.406,10.482l14.753,0c-1.719,-18.854 -21.771,-20.677 -31.797,-20.677c-15.873,-0 -28.711,5.638 -28.711,20.13" style="fill:#231f20;fill-rule:nonzero;"></path><path d="M1097.13,88.464c0,-48.855 -39.609,-88.464 -88.463,-88.464c-48.854,-0 -88.464,39.609 -88.464,88.464c0,48.854 39.61,88.463 88.464,88.463c48.854,0 88.463,-39.609 88.463,-88.463m-43.307,42.421c-13.424,19.154 -35.937,27.956 -56.823,24.258c15.326,-2.109 29.974,-10.573 39.779,-24.557c3.476,-4.974 6.08,-10.274 7.864,-15.716c-10.612,14.518 -27.773,21.38 -43.971,19.101c-8.776,-0.911 -17.37,-3.958 -25.013,-9.31c-24.896,-17.434 -30.339,-52.63 -12.135,-78.619c13.411,-19.154 35.924,-27.956 56.809,-24.258c-15.325,2.109 -29.974,10.573 -39.765,24.557c-3.477,4.974 -6.094,10.274 -7.878,15.716c10.612,-14.518 27.774,-21.38 43.985,-19.101c8.763,0.911 17.356,3.958 25,9.31c24.895,17.435 30.338,52.63 12.148,78.619" style="fill:#f7931d;fill-rule:nonzero;"></path></svg>