<svg width="100%" height="100%" viewBox="0 0 1098 324" version="1.1" xmlns="http://www.w3.org/2000/svg" xmlns:xlink="http://www.w3.org/1999/xlink" xml:space="preserve" xmlns:serif="http://www.serif.com/" style="fill-rule:evenodd;clip-rule:evenodd;stroke-linejoin:round;stroke-miterlimit:2;"><path d="M0,178.35c0,23.594 14.049,39.362 50.612,39.362c34.857,0 44.831,-16.393 44.831,-31.549c-0,-17.813 -12.162,-25 -34.506,-29.375l-22.981,-4.531c-21.25,-4.219 -26.407,-10.17 -26.407,-22.045c0,-12.812 8.907,-22.812 36.094,-22.812c29.388,-0 36.576,15 37.513,27.812l7.162,0c-0.769,-23.75 -18.568,-34.049 -46.706,-34.049c-27.656,-0 -42.175,12.174 -42.175,28.893c0,16.888 9.362,24.076 33.737,29.232l20.782,4.375c23.45,4.844 29.388,10.469 29.388,22.969c-0,13.125 -10,24.843 -37.357,24.843c-30,0 -42.669,-12.343 -42.813,-33.125l-7.174,0Zm109.219,36.862l89.049,0l0,-6.237l-81.888,0l0,-48.45l77.656,-0l0,-6.237l-77.656,-0l0,-44.388l80.938,-0l-0,-6.237l-88.099,-0l-0,111.549Zm102.044,0l7.148,0l0,-101.562l0.313,-0l53.919,101.562l7.188,0l53.919,-101.562l0.313,-0l-0,101.562l7.161,0l-0,-111.549l-10.755,-0l-54.232,102.5l-54.232,-102.5l-10.742,-0l0,111.549Zm144.518,-36.862c0,23.594 14.037,39.362 50.612,39.362c34.857,0 44.831,-16.393 44.831,-31.549c-0,-17.813 -12.161,-25 -34.518,-29.375l-22.969,-4.531c-21.263,-4.219 -26.419,-10.17 -26.419,-22.045c-0,-12.812 8.919,-22.812 36.106,-22.812c29.389,-0 36.576,15 37.514,27.812l7.161,0c-0.781,-23.75 -18.581,-34.049 -46.706,-34.049c-27.669,-0 -42.174,12.174 -42.174,28.893c-0,16.888 9.349,24.076 33.737,29.232l20.781,4.375c23.451,4.844 29.388,10.469 29.388,22.969c0,13.125 -10,24.843 -37.357,24.843c-30.013,0 -42.669,-12.343 -42.825,-33.125l-7.162,0Zm111.55,-18.906c-0,-26.732 18.424,-52.044 52.031,-52.044c33.594,-0 52.044,25.312 52.044,52.044c0,26.719 -18.45,52.031 -52.044,52.031c-33.607,0 -52.031,-25.312 -52.031,-52.031m-7.175,0c0,21.875 13.88,58.268 59.206,58.268c45.326,0 59.219,-36.393 59.219,-58.268c-0,-21.888 -13.894,-58.281 -59.219,-58.281c-45.326,-0 -59.206,36.393 -59.206,58.281m120.625,-49.544l45.013,-0l0,105.312l7.149,0l-0,-105.312l45,-0l-0,-6.237l-97.162,-0l0,6.237Zm104.206,105.312l89.049,0l0,-6.237l-81.875,0l0,-48.45l77.657,-0l-0,-6.237l-77.657,-0l0,-44.388l80.938,-0l-0,-6.237l-88.112,-0l-0,111.549Zm203.424,-42.33c-4.218,24.218 -22.968,38.593 -47.656,38.593c-34.219,0 -52.174,-24.062 -52.174,-52.031c-0,-28.138 20.299,-52.044 52.174,-52.044c20.938,-0 40.469,9.843 45.781,31.25l7.188,-0c-5.625,-24.844 -26.094,-37.487 -52.969,-37.487c-40.937,-0 -59.362,31.237 -59.362,58.281c0,36.875 25.456,58.268 59.362,58.268c33.438,0 52.344,-23.58 54.844,-44.83l-7.188,-0Z" style="fill:#231f20;fill-rule:nonzero;"></path><path d="M411.466,322.076l13.672,-0l0,-29.532l40.378,0l-0,29.532l13.658,-0l0,-65.066l-13.658,0l-0,25.339l-40.378,-0l0,-25.339l-13.672,0l0,65.066Zm115.677,1.822c27.513,0 38.255,-16.028 38.255,-34.362c0,-18.32 -10.742,-34.349 -38.255,-34.349c-27.539,0 -38.294,16.029 -38.294,34.349c-0,18.334 10.755,34.362 38.294,34.362m0,-10.195c-15.338,0 -24.088,-9.844 -24.088,-24.167c-0,-14.309 8.75,-24.153 24.088,-24.153c15.313,-0 24.05,9.844 24.05,24.153c-0,14.323 -8.737,24.167 -24.05,24.167m47.93,8.373l53.216,-0l0,-10.743l-39.557,0l-0,-54.323l-13.659,0l-0,65.066Zm74.453,-54.87l18.503,-0c7.682,-0 21.067,1.276 21.067,22.422c0,19.062 -10.468,22.252 -20.325,22.252l-19.245,0l0,-44.674Zm-13.659,54.87l38.386,-0c22.135,-0 28.502,-17.852 28.502,-31.902c0,-18.593 -6.276,-33.164 -31.797,-33.164l-35.091,0l0,65.066Zm77.656,-0l13.659,-0l0,-65.066l-13.659,0l0,65.066Zm26.993,-0l13.099,-0l-0,-48.855l0.182,0l39.023,48.855l15.404,-0l-0,-65.066l-13.112,0l-0,48.855l-0.195,-0l-38.737,-48.855l-15.664,0l-0,65.066Zm150.364,-35.717l-32.083,0l-0,10.196l18.437,-0c-2.187,10.768 -8.593,17.148 -22.539,17.148c-11.484,0 -22.591,-6.38 -22.591,-23.698c0,-14.323 6.472,-24.622 23.334,-24.622c8.828,-0 17.031,3.737 19.518,12.591l14.752,-0c-1.471,-12.773 -14.114,-22.787 -33.919,-22.787c-26.51,0 -37.891,16.029 -37.891,34.362c0,18.321 10.73,34.349 38.256,34.349c10.221,0 19.518,-3.919 24.817,-10.286l1.901,8.464l8.008,-0l0,-35.717Z" style="fill:#231f20;fill-rule:nonzero;"></path><path d="M1097.12,88.464c-0,-48.855 -39.61,-88.464 -88.464,-88.464c-48.854,0 -88.463,39.609 -88.463,88.464c-0,48.854 39.609,88.463 88.463,88.463c48.854,0 88.464,-39.609 88.464,-88.463m-43.294,42.421c-13.425,19.154 -35.951,27.956 -56.823,24.258c15.312,-2.109 29.961,-10.573 39.765,-24.557c3.49,-4.974 6.081,-10.273 7.878,-15.716c-10.625,14.518 -27.774,21.38 -43.972,19.101c-8.776,-0.911 -17.369,-3.958 -25.013,-9.31c-24.895,-17.434 -30.338,-52.63 -12.148,-78.619c13.425,-19.154 35.925,-27.956 56.823,-24.258c-15.326,2.109 -29.974,10.573 -39.766,24.557c-3.489,4.974 -6.106,10.274 -7.89,15.716c10.625,-14.518 27.773,-21.38 43.984,-19.101c8.763,0.911 17.357,3.958 25,9.31c24.896,17.435 30.339,52.63 12.162,78.619" style="fill:#f7931d;fill-rule:nonzero;"></path></svg>