<svg width="100%" height="100%" viewBox="0 0 1734 512" version="1.1" xmlns="http://www.w3.org/2000/svg" xmlns:xlink="http://www.w3.org/1999/xlink" xml:space="preserve" xmlns:serif="http://www.serif.com/" style="fill-rule:evenodd;clip-rule:evenodd;stroke-linejoin:round;stroke-miterlimit:2;"><path d="M11.341,281.745c0.248,32.825 20.235,52.318 67.617,52.318c43.177,-0 58.972,-18.503 58.972,-39.232c-0,-19.74 -9.375,-28.62 -46.394,-36.276l-32.825,-6.901c-38.49,-8.151 -53.294,-19.506 -53.294,-46.146c-0,-26.406 22.942,-45.664 66.627,-45.664c44.414,-0 72.552,16.289 73.789,53.802l-11.354,-0c-1.484,-20.235 -12.838,-43.919 -59.219,-43.919c-42.942,-0 -57.005,15.794 -57.005,36.015c0,18.763 8.138,28.138 41.693,34.792l36.276,7.161c35.286,6.901 54.544,18.256 54.544,46.394c0,23.932 -15.794,49.856 -70.833,49.856c-57.734,0 -79.935,-24.935 -79.935,-62.2l11.341,-0Z" style="fill:#0e1314;fill-rule:nonzero;"></path><path d="M172.526,163.802l139.167,0l-0,9.87l-127.813,-0l0,70.078l122.643,-0l0,9.87l-122.643,-0l0,76.497l129.297,0l0,9.87l-140.651,-0l0,-176.185Z" style="fill:#0e1314;fill-rule:nonzero;"></path><path d="M333.698,163.802l17.031,0l85.625,161.862l85.625,-161.862l17.031,0l0,176.185l-11.354,-0l0,-160.391l-0.495,0l-85.13,160.391l-11.354,-0l-85.13,-160.391l-0.495,0l0,160.391l-11.354,-0l-0,-176.185Z" style="fill:#0e1314;fill-rule:nonzero;"></path><path d="M573.372,281.745c0.235,32.825 20.222,52.318 67.605,52.318c43.177,-0 58.971,-18.503 58.971,-39.232c-0,-19.74 -9.362,-28.62 -46.38,-36.276l-32.826,-6.901c-38.502,-8.151 -53.294,-19.506 -53.294,-46.146c-0,-26.406 22.943,-45.664 66.628,-45.664c44.414,-0 72.539,16.289 73.776,53.802l-11.342,-0c-1.497,-20.235 -12.851,-43.919 -59.231,-43.919c-42.943,-0 -57.006,15.794 -57.006,36.015c0,18.763 8.151,28.138 41.706,34.792l36.276,7.161c35.287,6.901 54.531,18.256 54.531,46.394c0,23.932 -15.794,49.856 -70.82,49.856c-57.734,0 -79.948,-24.935 -79.948,-62.2l11.354,-0Z" style="fill:#0e1314;fill-rule:nonzero;"></path><path d="M820.404,334.063c53.073,-0 82.187,-39.974 82.187,-82.175c0,-42.2 -29.114,-82.161 -82.187,-82.161c-53.047,-0 -82.162,39.961 -82.162,82.161c0,42.201 29.115,82.175 82.162,82.175Zm-0,-174.219c71.562,-0 93.528,57.5 93.528,92.044c0,34.557 -21.966,92.057 -93.528,92.057c-71.55,0 -93.503,-57.5 -93.503,-92.057c0,-34.544 21.953,-92.044 93.503,-92.044Z" style="fill:#0e1314;fill-rule:nonzero;"></path><path d="M917.448,163.802l153.489,0l0,9.87l-71.067,-0l-0,166.315l-11.354,-0l-0,-166.315l-71.068,-0l-0,-9.87Z" style="fill:#0e1314;fill-rule:nonzero;"></path><path d="M1082.08,163.802l139.18,0l-0,9.87l-127.839,-0l0,70.078l122.657,-0l-0,9.87l-122.657,-0l0,76.497l129.31,0l0,9.87l-140.651,-0l0,-176.185Z" style="fill:#0e1314;fill-rule:nonzero;"></path><path d="M1414.75,273.112c-3.933,33.555 -33.79,70.833 -86.602,70.833c-53.542,0 -93.763,-33.815 -93.763,-92.057c0,-42.682 29.102,-92.044 93.763,-92.044c42.448,-0 74.766,19.987 83.659,59.232l-11.354,-0c-8.399,-33.816 -39.245,-49.349 -72.305,-49.349c-50.339,-0 -82.422,37.747 -82.422,82.161c0,44.18 28.386,82.175 82.422,82.175c38.984,-0 68.607,-22.696 75.261,-60.951l11.341,-0Z" style="fill:#0e1314;fill-rule:nonzero;"></path><rect x="673.75" y="405.951" width="21.602" height="102.852" style="fill:#0e1314;fill-rule:nonzero;"></rect><path d="M716.354,405.951l21.602,-0l-0,85.846l62.526,-0l-0,17.005l-84.128,0l0,-102.851Z" style="fill:#0e1314;fill-rule:nonzero;"></path><rect x="812.396" y="405.951" width="21.602" height="102.852" style="fill:#0e1314;fill-rule:nonzero;"></rect><path d="M964.635,508.802l-12.682,0l-3.034,-13.398c-8.346,10.078 -23.034,16.276 -39.166,16.276c-43.503,-0 -60.508,-25.352 -60.508,-54.297c-0,-28.959 18.008,-54.31 59.935,-54.31c31.25,-0 51.263,15.833 53.58,36.003l-23.346,-0c-3.88,-13.972 -16.849,-19.87 -30.82,-19.87c-26.641,-0 -36.875,16.276 -36.875,38.893c-0,27.37 17.565,37.448 35.729,37.448c22.031,-0 32.122,-10.078 35.573,-27.083l-29.102,-0l0,-16.133l50.716,-0l0,56.471Z" style="fill:#0e1314;fill-rule:nonzero;"></path><path d="M985.612,405.951l89.297,-0l-0,16.132l-67.695,0l-0,25.938l64.96,-0l0,16.12l-64.96,-0l-0,28.528l68.854,0l-0,16.133l-90.456,0l-0,-102.851Z" style="fill:#0e1314;fill-rule:nonzero;"></path><path d="M1092.29,405.951l24.791,-0l61.211,77.213l0.3,0l-0,-77.213l20.729,-0l-0,102.851l-24.336,0l-61.667,-77.213l-0.286,-0l-0,77.213l-20.742,0l-0,-102.851Z" style="fill:#0e1314;fill-rule:nonzero;"></path><path d="M1248.38,422.083l-38.606,0l-0,-16.132l98.815,-0l-0,16.132l-38.607,0l0,86.719l-21.602,0l0,-86.719Z" style="fill:#0e1314;fill-rule:nonzero;"></path><path d="M1378,467.174l-17.578,-43.372l-17.865,43.372l35.443,0Zm-30.104,-61.223l25.638,-0l45.807,102.851l-24.063,0l-10.807,-25.495l-48.398,0l-10.651,25.495l-23.334,0l45.808,-102.851Z" style="fill:#0e1314;fill-rule:nonzero;"></path><path d="M1733.15,139.753c-0,-77.175 -62.578,-139.753 -139.752,-139.753c-77.175,0 -139.74,62.578 -139.74,139.753c-0,77.174 62.565,139.752 139.74,139.752c77.174,0 139.752,-62.578 139.752,-139.752Zm-68.424,67.005c-21.185,30.26 -56.771,44.166 -89.74,38.333c24.193,-3.333 47.344,-16.706 62.812,-38.802c5.495,-7.838 9.61,-16.224 12.422,-24.831c-16.757,22.943 -43.88,33.789 -69.453,30.183c-13.867,-1.433 -27.448,-6.25 -39.518,-14.714c-39.323,-27.539 -47.904,-83.138 -19.167,-124.18c21.159,-30.26 56.745,-44.166 89.753,-38.333c-24.219,3.333 -47.37,16.706 -62.839,38.802c-5.494,7.839 -9.609,16.211 -12.421,24.818c16.744,-22.93 43.88,-33.776 69.453,-30.182c13.854,1.445 27.421,6.263 39.505,14.726c39.349,27.539 47.93,83.138 19.193,124.18Z" style="fill:#f79322;fill-rule:nonzero;"></path></svg>