<svg width="100%" height="100%" viewBox="0 0 1098 324" version="1.1" xmlns="http://www.w3.org/2000/svg" xmlns:xlink="http://www.w3.org/1999/xlink" xml:space="preserve" xmlns:serif="http://www.serif.com/" style="fill-rule:evenodd;clip-rule:evenodd;stroke-linejoin:round;stroke-miterlimit:2;"><path d="M0,178.344c0,23.594 14.049,39.362 50.612,39.362c34.857,-0 44.831,-16.393 44.831,-31.55c-0,-17.812 -12.162,-25 -34.506,-29.375l-22.981,-4.531c-21.25,-4.219 -26.407,-10.169 -26.407,-22.044c0,-12.813 8.907,-22.813 36.094,-22.813c29.388,0 36.576,15 37.513,27.813l7.162,-0c-0.769,-23.75 -18.568,-34.05 -46.706,-34.05c-27.656,0 -42.175,12.175 -42.175,28.893c0,16.889 9.362,24.076 33.737,29.232l20.782,4.375c23.45,4.844 29.388,10.469 29.388,22.969c-0,13.125 -10,24.844 -37.357,24.844c-30,-0 -42.669,-12.344 -42.813,-33.125l-7.174,-0Zm109.219,36.862l89.049,-0l0,-6.237l-81.888,-0l0,-48.451l77.656,0l0,-6.237l-77.656,0l0,-44.388l80.938,0l-0,-6.237l-88.099,0l-0,111.55Zm102.044,-0l7.148,-0l0,-101.563l0.313,0l53.919,101.563l7.188,-0l53.919,-101.563l0.313,0l-0,101.563l7.161,-0l-0,-111.55l-10.755,0l-54.232,102.5l-54.232,-102.5l-10.742,0l0,111.55Zm144.518,-36.862c0,23.594 14.037,39.362 50.612,39.362c34.857,-0 44.831,-16.393 44.831,-31.55c-0,-17.812 -12.161,-25 -34.518,-29.375l-22.969,-4.531c-21.263,-4.219 -26.419,-10.169 -26.419,-22.044c-0,-12.813 8.919,-22.813 36.106,-22.813c29.389,0 36.576,15 37.514,27.813l7.161,-0c-0.781,-23.75 -18.581,-34.05 -46.706,-34.05c-27.669,0 -42.174,12.175 -42.174,28.893c-0,16.889 9.349,24.076 33.737,29.232l20.781,4.375c23.451,4.844 29.388,10.469 29.388,22.969c0,13.125 -10,24.844 -37.357,24.844c-30.013,-0 -42.669,-12.344 -42.825,-33.125l-7.162,-0Zm111.55,-18.906c-0,-26.732 18.424,-52.045 52.031,-52.045c33.594,0 52.044,25.313 52.044,52.045c0,26.718 -18.45,52.031 -52.044,52.031c-33.607,-0 -52.031,-25.313 -52.031,-52.031m-7.175,-0c0,21.875 13.88,58.268 59.206,58.268c45.326,-0 59.219,-36.393 59.219,-58.268c-0,-21.889 -13.894,-58.282 -59.219,-58.282c-45.326,0 -59.206,36.393 -59.206,58.282m120.625,-49.545l45.013,0l0,105.313l7.149,-0l-0,-105.313l45,0l-0,-6.237l-97.162,0l0,6.237Zm104.206,105.313l89.049,-0l0,-6.237l-81.875,-0l0,-48.451l77.657,0l-0,-6.237l-77.657,0l0,-44.388l80.938,0l-0,-6.237l-88.112,0l-0,111.55Zm203.424,-42.331c-4.218,24.219 -22.968,38.594 -47.656,38.594c-34.219,-0 -52.174,-24.063 -52.174,-52.031c-0,-28.139 20.299,-52.045 52.174,-52.045c20.938,0 40.469,9.844 45.781,31.25l7.188,0c-5.625,-24.844 -26.094,-37.487 -52.969,-37.487c-40.937,0 -59.362,31.237 -59.362,58.282c0,36.875 25.456,58.268 59.362,58.268c33.438,-0 52.344,-23.581 54.844,-44.831l-7.188,0Z" style="fill:#231f20;fill-rule:nonzero;"></path><path d="M698.216,322.069l57.227,0l-0,-10.195l-43.568,-0l0,-18.06l41.107,-0l-0,-10.196l-41.107,0l0,-16.419l42.839,0l-0,-10.195l-56.498,-0l0,65.065Zm64.076,-46.758c-0,26.68 47.942,12.643 47.942,28.776c0,7.136 -7.747,9.61 -16.041,9.61c-11.224,-0 -18.334,-4.115 -18.698,-12.722l-14.753,0c0.169,13.724 9.557,22.917 32.995,22.917c13.841,-0 31.237,-4.375 31.237,-21.172c-0,-27.773 -48.477,-13.138 -48.477,-28.411c0,-6.107 6.016,-8.933 15.131,-8.933c11.406,0 15.95,5.469 16.419,10.482l14.739,0c-1.718,-18.854 -21.757,-20.677 -31.796,-20.677c-15.873,-0 -28.698,5.638 -28.698,20.13m84.661,-8.112l22.982,0c5.286,0 10.924,2.005 10.924,10.026c0,7.761 -4.179,9.857 -11.94,9.857l-21.966,0l0,-19.883Zm-13.659,54.87l13.659,0l0,-24.792l26.628,0c14.661,0 20.95,-10.104 20.95,-20.052c0,-10.482 -5.195,-20.221 -21.133,-20.221l-40.104,-0l0,65.065Z" style="fill:#231f20;fill-rule:nonzero;"></path><path d="M1097.12,88.464c-0,-48.855 -39.61,-88.464 -88.464,-88.464c-48.854,-0 -88.463,39.609 -88.463,88.464c-0,48.854 39.609,88.463 88.463,88.463c48.854,0 88.464,-39.609 88.464,-88.463m-43.294,42.421c-13.425,19.154 -35.951,27.956 -56.823,24.258c15.312,-2.109 29.961,-10.573 39.765,-24.557c3.49,-4.974 6.081,-10.274 7.878,-15.716c-10.625,14.518 -27.774,21.38 -43.972,19.101c-8.776,-0.911 -17.369,-3.958 -25.013,-9.31c-24.895,-17.434 -30.338,-52.63 -12.148,-78.619c13.425,-19.154 35.925,-27.956 56.823,-24.258c-15.326,2.109 -29.974,10.573 -39.766,24.557c-3.489,4.974 -6.106,10.274 -7.89,15.716c10.625,-14.518 27.773,-21.38 43.984,-19.101c8.763,0.911 17.357,3.958 25,9.31c24.896,17.435 30.339,52.63 12.162,78.619" style="fill:#f7931d;fill-rule:nonzero;"></path></svg>